<svg preserveAspectRatio="none" overflow="visible" style="display: block;" width="22" height="22" viewBox="0 0 22 22" fill="none" xmlns="http://www.w3.org/2000/svg">
<g id="eye 1" clip-path="url(#clip0_0_28)">
<g id="Vector">
</g>
<path id="Vector_2" d="M9.16699 10.9998C9.16699 11.4861 9.36015 11.9524 9.70396 12.2962C10.0478 12.64 10.5141 12.8332 11.0003 12.8332C11.4866 12.8332 11.9529 12.64 12.2967 12.2962C12.6405 11.9524 12.8337 11.4861 12.8337 10.9998C12.8337 10.5136 12.6405 10.0473 12.2967 9.70348C11.9529 9.35966 11.4866 9.1665 11.0003 9.1665C10.5141 9.1665 10.0478 9.35966 9.70396 9.70348C9.36015 10.0473 9.16699 10.5136 9.16699 10.9998Z" stroke="#10231C" stroke-opacity="0.9" stroke-width="2" stroke-linecap="round" stroke-linejoin="round"/>
<path id="Vector_3" d="M19.25 11C17.05 14.6667 14.3 16.5 11 16.5C7.7 16.5 4.95 14.6667 2.75 11C4.95 7.33333 7.7 5.5 11 5.5C14.3 5.5 17.05 7.33333 19.25 11Z" stroke="#10231C" stroke-opacity="0.9" stroke-width="2" stroke-linecap="round" stroke-linejoin="round"/>
</g>
<defs>
<clipPath id="clip0_0_28">
<rect width="22" height="22" fill="white"/>
</clipPath>
</defs>
</svg>
